<?xml version="1.0" standalone="no"?>
<!DOCTYPE svg PUBLIC "-//W3C//DTD SVG 1.1//EN" "http://www.w3.org/Graphics/SVG/1.1/DTD/svg11.dtd">
<svg version="1.1" xmlns="http://www.w3.org/2000/svg" viewBox="0 0 311 291" width="311" height="291" filter="invert(93%) hue-rotate(180deg)"><!-- svg-source:excalidraw --><metadata></metadata><defs><style class="style-fonts">
      </style></defs><g transform="translate(10 10) rotate(0 145.5 135.5)" stroke="none"><path fill="#1e1e1e" d="M 0.13,-7.19 Q 0.13,-7.19 15.65,-6.64 31.17,-6.09 49.04,-5.20 66.91,-4.31 94.35,-2.72 121.80,-1.13 140.81,-0.70 159.83,-0.28 176.79,-0.35 193.76,-0.43 209.59,-0.72 225.42,-1.02 236.21,-1.13 247.00,-1.24 253.60,-1.64 260.20,-2.04 264.44,-2.52 268.69,-2.99 275.03,-2.99 281.37,-2.99 286.75,-2.94 292.13,-2.90 295.99,2.37 299.84,7.65 298.46,12.05 297.07,16.46 293.28,20.19 289.50,23.92 285.01,27.83 280.52,31.74 273.74,36.46 266.97,41.18 258.39,46.67 249.81,52.16 239.76,58.64 229.71,65.13 220.12,70.98 210.53,76.84 201.49,82.14 192.46,87.44 184.47,91.70 176.48,95.95 169.34,99.59 162.19,103.24 153.64,106.22 145.08,109.20 132.18,112.73 119.28,116.27 109.69,119.40 100.11,122.53 93.48,125.00 86.84,127.48 82.76,129.40 78.68,131.33 76.72,126.34 74.76,121.34 82.37,119.90 89.98,118.46 100.80,117.77 111.63,117.08 128.23,115.76 144.83,114.44 162.32,113.40 179.82,112.36 193.36,111.99 206.90,111.61 215.82,111.51 224.74,111.41 231.33,111.86 237.92,112.31 243.77,114.25 249.63,116.20 254.44,118.36 259.25,120.53 263.56,122.87 267.86,125.22 272.22,129.38 276.58,133.53 280.14,137.91 283.71,142.28 286.26,146.71 288.82,151.13 290.36,157.98 291.91,164.82 292.30,172.13 292.70,179.44 291.79,189.14 290.87,198.84 287.85,207.94 284.82,217.03 281.95,223.24 279.09,229.44 275.57,234.17 272.06,238.91 266.11,243.10 260.16,247.30 252.42,249.93 244.67,252.56 236.71,254.70 228.76,256.84 220.23,259.25 211.70,261.67 204.09,264.13 196.47,266.59 189.57,269.15 182.67,271.70 176.65,273.68 170.63,275.66 164.78,276.74 158.93,277.83 151.36,277.59 143.80,277.36 134.08,274.46 124.35,271.56 115.59,268.51 106.83,265.46 99.88,263.20 92.93,260.94 86.66,259.31 80.39,257.67 76.22,256.59 72.05,255.52 65.02,253.97 58.00,252.43 53.67,250.87 49.34,249.30 42.52,247.21 35.69,245.12 30.83,245.23 25.97,245.33 24.16,245.03 22.35,244.73 20.73,243.87 19.11,243.00 17.86,241.67 16.60,240.33 15.83,238.67 15.07,237.00 14.87,235.18 14.68,233.35 15.08,231.56 15.47,229.77 16.42,228.20 17.37,226.64 18.77,225.45 20.17,224.27 21.88,223.59 23.59,222.92 25.42,222.82 27.25,222.73 29.01,223.22 30.78,223.72 32.30,224.75 33.81,225.78 34.92,227.25 36.02,228.71 36.60,230.45 37.19,232.19 37.18,234.02 37.18,235.86 36.59,237.59 36.00,239.33 34.88,240.79 33.77,242.24 32.25,243.27 30.73,244.30 28.96,244.78 27.19,245.27 25.36,245.16 23.53,245.06 21.83,244.38 20.13,243.69 18.73,242.50 17.34,241.31 16.39,239.74 15.45,238.16 15.06,236.37 14.67,234.58 14.88,232.76 15.08,230.93 15.86,229.27 16.63,227.61 17.89,226.28 19.16,224.95 20.78,224.10 22.40,223.24 24.21,222.95 26.03,222.66 26.02,222.66 26.02,222.66 32.21,223.50 38.41,224.35 43.19,226.40 47.97,228.45 52.30,230.04 56.63,231.63 63.37,234.79 70.11,237.94 77.27,240.86 84.42,243.78 90.88,245.84 97.34,247.91 104.11,250.29 110.87,252.67 119.50,255.12 128.13,257.58 136.33,259.51 144.52,261.45 150.71,261.76 156.90,262.08 161.76,261.76 166.62,261.43 172.29,260.10 177.95,258.76 185.01,256.23 192.07,253.70 199.70,250.95 207.34,248.20 215.76,245.12 224.18,242.04 231.75,239.37 239.32,236.69 245.10,234.77 250.88,232.85 257.99,227.57 265.09,222.28 267.77,217.48 270.44,212.68 272.34,205.35 274.23,198.03 274.07,189.38 273.90,180.74 273.36,174.64 272.83,168.54 270.89,161.03 268.95,153.51 266.20,149.64 263.45,145.77 257.63,140.20 251.80,134.63 247.87,132.18 243.94,129.73 240.03,127.58 236.13,125.42 230.58,124.34 225.03,123.26 216.21,123.62 207.40,123.97 194.08,124.68 180.77,125.39 163.49,126.89 146.21,128.39 129.70,130.35 113.19,132.30 101.58,133.90 89.96,135.50 80.11,135.17 70.25,134.84 67.16,130.81 64.06,126.78 69.03,122.46 73.99,118.15 78.49,117.02 82.98,115.90 89.77,113.90 96.56,111.89 106.37,108.55 116.18,105.21 128.62,101.64 141.06,98.06 148.85,95.14 156.63,92.22 163.58,88.73 170.53,85.25 178.12,80.85 185.70,76.46 194.37,70.87 203.03,65.28 212.10,59.05 221.16,52.81 230.65,45.74 240.13,38.66 247.75,32.53 255.38,26.41 261.02,21.38 266.66,16.36 274.22,11.74 281.78,7.12 283.96,11.10 286.14,15.09 281.83,14.20 277.52,13.31 273.15,12.19 268.78,11.07 264.54,10.65 260.31,10.23 253.73,9.95 247.15,9.68 236.41,9.87 225.66,10.05 209.76,10.46 193.86,10.86 176.74,11.09 159.63,11.31 140.40,11.08 121.16,10.85 93.79,9.55 66.42,8.25 48.67,7.74 30.92,7.24 15.39,7.22 -0.13,7.19 -0.99,7.07 -1.85,6.95 -2.65,6.63 -3.46,6.31 -4.16,5.80 -4.87,5.29 -5.43,4.63 -5.99,3.97 -6.38,3.20 -6.77,2.42 -6.96,1.58 -7.16,0.73 -7.14,-0.13 -7.12,-1.00 -6.90,-1.83 -6.68,-2.67 -6.26,-3.43 -5.84,-4.19 -5.25,-4.83 -4.67,-5.47 -3.94,-5.95 -3.22,-6.43 -2.40,-6.72 -1.59,-7.01 -0.72,-7.10 0.13,-7.19 0.13,-7.19 L 0.13,-7.19 Z"></path></g></svg>