<?xml version="1.0" standalone="no"?>
<!DOCTYPE svg PUBLIC "-//W3C//DTD SVG 1.1//EN" "http://www.w3.org/Graphics/SVG/1.1/DTD/svg11.dtd">
<svg version="1.1" xmlns="http://www.w3.org/2000/svg" viewBox="0 0 136.21566050723675 115.35643939055319" width="136.21566050723675" height="115.35643939055319" filter="invert(93%) hue-rotate(180deg)"><!-- svg-source:excalidraw --><metadata></metadata><defs><style class="style-fonts">
      </style></defs><g transform="translate(10 19.932962436515936) rotate(0 58.107830253618374 37.74525725876066)" stroke="none"><path fill="#1e1e1e" d="M -0.24,-3.03 Q -0.24,-3.03 5.01,-3.69 10.28,-4.34 15.17,-4.55 20.06,-4.75 25.19,-5.13 30.32,-5.51 35.64,-5.95 40.97,-6.40 46.47,-7.03 51.97,-7.67 57.40,-8.50 62.83,-9.33 67.42,-10.10 72.02,-10.87 75.76,-11.38 79.51,-11.89 82.16,-12.12 84.81,-12.36 87.90,-12.54 90.98,-12.73 93.58,-13.10 96.18,-13.47 97.54,-13.75 98.90,-14.04 99.40,-14.02 99.90,-14.01 100.39,-13.88 100.87,-13.74 101.30,-13.50 101.74,-13.25 102.10,-12.91 102.47,-12.57 102.74,-12.15 103.01,-11.73 103.18,-11.25 103.34,-10.78 103.39,-10.28 103.43,-9.78 103.36,-9.29 103.28,-8.79 103.09,-8.33 102.90,-7.87 102.60,-7.47 102.31,-7.06 101.92,-6.74 101.54,-6.42 101.09,-6.20 100.64,-5.98 100.15,-5.88 99.66,-5.77 101.49,-8.04 103.33,-10.30 103.39,-7.97 103.45,-5.64 101.79,-3.65 100.13,-1.65 97.61,0.46 95.08,2.57 93.36,3.87 91.65,5.16 88.95,6.95 86.26,8.75 83.27,10.63 80.28,12.50 76.92,14.37 73.55,16.24 69.96,18.06 66.36,19.87 62.70,21.67 59.04,23.46 55.56,24.74 52.09,26.02 49.58,26.95 47.07,27.88 44.42,28.50 41.77,29.11 38.55,29.86 35.32,30.62 33.56,31.35 31.79,32.08 31.27,32.24 30.74,32.39 30.20,32.42 29.65,32.44 29.11,32.34 28.58,32.23 28.08,32.00 27.59,31.76 27.16,31.42 26.73,31.07 26.40,30.64 26.07,30.20 25.86,29.70 25.64,29.20 25.55,28.66 25.46,28.12 25.50,27.57 25.54,27.03 25.71,26.51 25.88,25.99 26.18,25.52 26.47,25.06 26.86,24.68 27.25,24.30 27.72,24.02 28.20,23.75 30.70,23.70 33.21,23.65 36.17,22.97 39.12,22.28 42.99,21.17 46.86,20.06 51.87,18.95 56.87,17.84 62.40,17.06 67.93,16.28 73.31,16.10 78.68,15.92 83.83,16.58 88.98,17.25 93.65,18.93 98.32,20.60 102.19,22.87 106.06,25.14 109.01,27.49 111.96,29.84 114.23,32.75 116.50,35.66 117.88,39.06 119.27,42.47 119.32,46.28 119.36,50.09 118.38,53.91 117.40,57.73 115.29,61.19 113.18,64.65 110.28,67.90 107.39,71.14 102.58,74.14 97.77,77.14 91.49,79.73 85.21,82.32 78.08,84.59 70.95,86.86 66.66,87.95 62.38,89.05 49.83,86.77 37.29,84.49 31.89,82.81 26.49,81.13 22.61,80.08 18.73,79.03 18.34,78.86 17.95,78.69 17.63,78.41 17.32,78.12 17.11,77.75 16.90,77.38 16.82,76.97 16.74,76.55 16.80,76.13 16.85,75.71 17.04,75.33 17.23,74.95 17.53,74.65 17.83,74.35 18.21,74.16 18.59,73.97 19.02,73.91 19.44,73.85 19.85,73.93 20.27,74.01 20.64,74.22 21.01,74.43 21.29,74.75 21.58,75.06 21.75,75.46 21.91,75.85 21.95,76.27 21.98,76.69 21.88,77.11 21.78,77.52 21.55,77.88 21.32,78.23 20.99,78.50 20.66,78.77 20.26,78.91 19.86,79.06 19.43,79.07 19.01,79.08 18.60,78.96 18.20,78.83 17.85,78.58 17.51,78.34 17.26,77.99 17.01,77.64 16.89,77.24 16.76,76.83 16.77,76.41 16.78,75.98 16.93,75.58 17.08,75.19 17.34,74.85 17.61,74.52 17.97,74.29 18.33,74.07 18.74,73.96 19.15,73.86 19.58,73.90 20.00,73.93 20.00,73.93 20.00,73.93 23.92,74.82 27.83,75.71 32.98,76.65 38.12,77.60 49.05,78.13 59.98,78.67 63.89,77.66 67.80,76.65 74.59,74.63 81.37,72.61 86.99,70.49 92.61,68.37 96.31,66.33 100.02,64.29 102.38,61.73 104.74,59.17 106.26,57.03 107.78,54.89 108.89,50.28 110.01,45.67 109.27,43.53 108.53,41.39 107.14,39.31 105.75,37.23 103.46,35.23 101.17,33.24 98.08,31.33 94.99,29.41 91.33,27.97 87.68,26.54 83.32,25.92 78.97,25.30 74.09,25.46 69.21,25.62 64.04,26.32 58.86,27.01 54.14,28.02 49.41,29.03 45.17,30.22 40.94,31.41 36.37,31.75 31.79,32.08 31.27,32.24 30.74,32.39 30.20,32.42 29.65,32.44 29.11,32.34 28.58,32.23 28.08,32.00 27.59,31.76 27.16,31.42 26.74,31.08 26.40,30.64 26.07,30.20 25.86,29.70 25.64,29.20 25.55,28.66 25.46,28.12 25.50,27.57 25.54,27.03 25.71,26.51 25.88,25.99 26.17,25.52 26.47,25.06 26.86,24.68 27.25,24.30 27.72,24.02 28.20,23.75 29.28,23.05 30.35,22.35 33.23,21.52 36.10,20.70 39.97,19.87 43.83,19.03 46.38,18.11 48.92,17.20 51.97,16.13 55.02,15.07 58.64,13.37 62.26,11.66 65.71,9.96 69.16,8.25 72.30,6.54 75.45,4.83 78.37,2.99 81.29,1.15 83.76,-0.43 86.23,-2.02 87.94,-3.30 89.65,-4.58 92.47,-6.77 95.29,-8.96 97.10,-11.50 98.90,-14.04 99.40,-14.02 99.90,-14.01 100.39,-13.88 100.87,-13.74 101.30,-13.50 101.74,-13.25 102.10,-12.91 102.47,-12.57 102.74,-12.15 103.01,-11.73 103.18,-11.25 103.34,-10.78 103.39,-10.28 103.43,-9.78 103.36,-9.29 103.28,-8.79 103.09,-8.33 102.90,-7.87 102.60,-7.47 102.31,-7.06 101.92,-6.74 101.54,-6.42 101.09,-6.20 100.64,-5.98 100.15,-5.88 99.66,-5.77 98.03,-5.54 96.40,-5.31 93.81,-5.17 91.22,-5.04 88.31,-4.97 85.40,-4.91 82.93,-4.74 80.45,-4.58 76.84,-4.13 73.23,-3.69 68.58,-2.90 63.92,-2.11 58.35,-1.27 52.77,-0.44 47.16,0.15 41.55,0.75 36.19,1.18 30.82,1.61 25.57,1.96 20.33,2.31 15.58,2.47 10.84,2.63 5.54,2.83 0.24,3.03 -0.12,3.02 -0.48,3.00 -0.84,2.90 -1.19,2.80 -1.51,2.61 -1.82,2.43 -2.09,2.18 -2.35,1.92 -2.55,1.61 -2.75,1.30 -2.86,0.95 -2.98,0.61 -3.01,0.24 -3.04,-0.12 -2.98,-0.48 -2.92,-0.84 -2.78,-1.18 -2.63,-1.52 -2.41,-1.81 -2.19,-2.11 -1.91,-2.34 -1.62,-2.57 -1.29,-2.73 -0.96,-2.88 -0.60,-2.96 -0.24,-3.03 -0.24,-3.03 L -0.24,-3.03 Z"></path></g></svg>