<?xml version="1.0" standalone="no"?>
<!DOCTYPE svg PUBLIC "-//W3C//DTD SVG 1.1//EN" "http://www.w3.org/Graphics/SVG/1.1/DTD/svg11.dtd">
<svg version="1.1" xmlns="http://www.w3.org/2000/svg" viewBox="0 0 90.52403329926324 142.17543796914623" width="90.52403329926324" height="142.17543796914623" filter="invert(93%) hue-rotate(180deg)"><!-- svg-source:excalidraw --><metadata></metadata><defs><style class="style-fonts">
      </style></defs><g transform="translate(43.27542416232836 12.97988873095477) rotate(0 1.9865924873032554 58.107830253618346)" stroke="none"><path fill="#1e1e1e" d="M -0.88,-3.18 Q -0.88,-3.18 1.60,-4.19 4.09,-5.20 6.93,-5.81 9.78,-6.41 12.83,-6.72 15.88,-7.03 18.83,-6.75 21.78,-6.47 24.47,-5.66 27.16,-4.84 30.10,-2.38 33.04,0.07 35.17,3.18 37.30,6.29 38.60,9.81 39.90,13.33 40.55,16.33 41.21,19.33 41.22,22.50 41.24,25.67 40.19,28.77 39.14,31.88 37.17,34.31 35.20,36.75 32.19,38.52 29.17,40.29 25.56,41.20 21.94,42.12 18.50,43.07 15.05,44.03 11.04,44.79 7.02,45.55 3.57,46.02 0.11,46.49 -3.07,46.84 -6.27,47.19 -8.86,47.34 -11.46,47.48 -13.75,47.38 -16.04,47.28 -19.05,46.55 -22.05,45.82 -23.35,43.30 -24.65,40.78 -23.01,37.76 -21.36,34.74 -19.00,34.05 -16.64,33.37 -13.92,33.02 -11.19,32.68 -8.54,32.53 -5.89,32.39 -1.88,32.79 2.12,33.19 5.86,34.31 9.59,35.42 12.82,36.61 16.06,37.79 19.11,39.64 22.17,41.50 24.75,43.74 27.32,45.97 30.22,49.97 33.11,53.98 34.49,57.32 35.86,60.66 36.33,63.97 36.80,67.29 35.69,71.17 34.58,75.05 32.44,78.37 30.31,81.68 27.38,84.78 24.45,87.87 20.88,90.59 17.31,93.31 13.82,95.39 10.32,97.47 4.10,99.35 -2.12,101.24 -6.85,102.00 -11.59,102.76 -15.79,102.52 -19.99,102.27 -23.44,100.97 -26.90,99.67 -29.57,97.49 -32.25,95.30 -33.79,93.26 -35.33,91.22 -36.28,88.87 -37.24,86.52 -37.22,83.33 -37.19,80.14 -36.15,77.49 -35.10,74.83 -33.08,72.79 -31.06,70.75 -27.59,69.49 -24.12,68.22 -20.30,68.05 -16.47,67.88 -12.19,69.13 -7.92,70.37 -4.41,72.59 -0.90,74.80 2.13,77.81 5.18,80.83 7.57,84.15 9.95,87.47 11.89,90.37 13.83,93.28 15.67,96.29 17.51,99.30 19.16,102.18 20.82,105.07 22.14,107.18 23.46,109.29 24.97,111.95 26.47,114.62 27.50,115.74 28.53,116.87 28.87,117.12 29.21,117.38 29.45,117.73 29.69,118.08 29.81,118.49 29.92,118.90 29.90,119.32 29.88,119.75 29.72,120.14 29.57,120.54 29.29,120.86 29.02,121.19 28.65,121.41 28.29,121.63 27.88,121.72 27.46,121.81 27.04,121.77 26.62,121.72 26.23,121.55 25.84,121.37 25.53,121.08 25.22,120.79 25.02,120.41 24.82,120.04 24.75,119.62 24.68,119.20 24.75,118.78 24.82,118.36 25.02,117.98 25.21,117.61 25.52,117.31 25.83,117.02 26.22,116.84 26.60,116.66 27.02,116.61 27.45,116.57 27.86,116.66 28.28,116.75 28.64,116.97 29.01,117.18 29.28,117.51 29.56,117.83 29.72,118.22 29.87,118.62 29.90,119.04 29.92,119.47 29.81,119.88 29.70,120.29 29.46,120.64 29.22,120.99 28.89,121.25 28.55,121.51 28.15,121.64 27.74,121.78 27.32,121.78 26.89,121.78 26.49,121.65 26.09,121.51 26.09,121.51 26.09,121.52 23.72,120.85 21.35,120.18 18.22,117.42 15.08,114.66 13.60,112.38 12.11,110.10 10.52,107.36 8.92,104.62 7.14,101.79 5.36,98.96 3.49,96.18 1.62,93.40 -0.24,90.74 -2.12,88.09 -4.39,85.77 -6.65,83.46 -8.94,81.86 -11.23,80.26 -13.86,79.27 -16.49,78.27 -18.85,78.20 -21.20,78.12 -23.50,78.75 -25.81,79.38 -26.63,81.35 -27.46,83.32 -26.45,85.51 -25.43,87.69 -22.25,89.95 -19.07,92.21 -16.09,92.51 -13.12,92.80 -9.05,92.15 -4.97,91.50 0.12,90.05 5.22,88.61 8.21,86.89 11.21,85.17 14.17,82.99 17.14,80.80 19.50,78.40 21.86,75.99 23.43,73.77 25.01,71.55 25.76,67.86 26.51,64.17 25.74,61.92 24.97,59.67 22.81,56.57 20.65,53.46 18.73,51.74 16.81,50.02 14.67,48.62 12.52,47.22 9.56,46.11 6.60,44.99 3.82,44.07 1.04,43.16 -2.19,42.80 -5.44,42.44 -7.77,42.53 -10.11,42.62 -12.91,42.36 -15.71,42.10 -16.90,39.60 -18.10,37.11 -15.06,37.31 -12.02,37.52 -9.67,37.38 -7.32,37.24 -4.26,36.93 -1.20,36.61 1.99,36.19 5.19,35.77 8.77,35.10 12.35,34.43 16.02,33.38 19.70,32.33 22.08,31.87 24.47,31.41 27.23,29.73 29.98,28.05 30.78,24.69 31.57,21.33 31.07,18.92 30.56,16.50 29.81,14.00 29.06,11.50 26.49,7.60 23.93,3.71 20.18,2.67 16.42,1.63 13.78,1.70 11.15,1.77 8.66,2.06 6.18,2.35 3.53,2.77 0.88,3.18 0.49,3.24 0.09,3.30 -0.30,3.27 -0.69,3.23 -1.07,3.10 -1.45,2.97 -1.78,2.75 -2.12,2.53 -2.39,2.24 -2.66,1.95 -2.86,1.61 -3.05,1.26 -3.16,0.87 -3.27,0.49 -3.28,0.09 -3.29,-0.30 -3.21,-0.69 -3.12,-1.08 -2.95,-1.44 -2.77,-1.79 -2.52,-2.10 -2.26,-2.41 -1.94,-2.64 -1.62,-2.88 -1.25,-3.03 -0.88,-3.18 -0.88,-3.18 L -0.88,-3.18 Z"></path></g></svg>