<?xml version="1.0" standalone="no"?>
<!DOCTYPE svg PUBLIC "-//W3C//DTD SVG 1.1//EN" "http://www.w3.org/Graphics/SVG/1.1/DTD/svg11.dtd">
<svg version="1.1" xmlns="http://www.w3.org/2000/svg" viewBox="0 0 75.1279415226636 121.81286497428852" width="75.1279415226636" height="121.81286497428852" filter="invert(93%) hue-rotate(180deg)"><!-- svg-source:excalidraw --><metadata></metadata><defs><style class="style-fonts">
      </style></defs><g transform="translate(26.886036142077046 13.973184974606397) rotate(0 10.677934619254756 46.93324751253786)" stroke="none"><path fill="#1e1e1e" d="M -1.43,-2.86 Q -1.43,-2.86 0.72,-4.27 2.88,-5.68 5.23,-6.38 7.58,-7.07 9.83,-7.26 12.07,-7.44 14.39,-7.05 16.71,-6.66 18.90,-5.65 21.09,-4.64 23.94,-2.37 26.79,-0.10 29.08,1.99 31.37,4.08 33.54,7.96 35.72,11.85 36.61,14.46 37.50,17.08 37.76,19.98 38.03,22.87 36.69,26.99 35.35,31.10 33.39,33.96 31.43,36.82 29.13,39.08 26.83,41.33 24.41,43.05 22.00,44.76 18.87,46.09 15.75,47.42 13.08,48.36 10.41,49.29 7.41,49.92 4.42,50.54 2.06,50.93 -0.29,51.31 -3.54,51.35 -6.79,51.40 -8.77,50.38 -10.75,49.36 -10.02,49.93 -9.30,50.50 -9.88,50.25 -10.46,50.00 -10.96,49.63 -11.46,49.25 -11.86,48.76 -12.25,48.27 -12.52,47.71 -12.79,47.14 -12.92,46.52 -13.04,45.91 -13.02,45.28 -12.99,44.65 -12.82,44.05 -12.64,43.44 -12.33,42.90 -12.01,42.36 -11.58,41.90 -11.14,41.45 -10.61,41.11 -10.08,40.78 -9.48,40.58 -8.89,40.38 -8.26,40.33 -7.64,40.28 -7.01,40.38 -6.39,40.48 -1.64,40.93 3.11,41.37 5.95,41.67 8.78,41.98 14.04,43.49 19.29,45.00 23.17,47.11 27.04,49.23 29.64,51.51 32.25,53.80 34.17,56.25 36.09,58.71 38.75,64.50 41.42,70.29 39.84,77.51 38.25,84.73 33.21,90.19 28.16,95.66 19.50,98.05 10.83,100.43 5.43,100.52 0.03,100.61 -3.88,99.66 -7.79,98.71 -11.09,96.94 -14.39,95.17 -14.72,93.21 -15.06,91.25 -15.32,91.08 -15.59,90.91 -15.80,90.68 -16.02,90.45 -16.18,90.17 -16.33,89.89 -16.41,89.59 -16.50,89.28 -16.51,88.97 -16.52,88.65 -16.45,88.34 -16.38,88.03 -16.24,87.75 -16.10,87.46 -15.90,87.22 -15.70,86.98 -15.44,86.79 -15.18,86.60 -14.89,86.48 -14.60,86.36 -14.29,86.32 -13.97,86.27 -13.66,86.30 -13.34,86.33 -13.04,86.43 -12.74,86.54 -12.30,86.90 -11.85,87.26 -11.64,87.63 -11.43,88.00 -11.35,88.42 -11.28,88.84 -11.33,89.26 -11.39,89.68 -11.58,90.06 -11.77,90.44 -12.08,90.74 -12.38,91.04 -12.76,91.22 -13.14,91.41 -13.56,91.46 -13.98,91.52 -14.40,91.44 -14.82,91.36 -15.19,91.15 -15.56,90.93 -15.84,90.62 -16.12,90.30 -16.29,89.91 -16.45,89.52 -16.49,89.09 -16.52,88.67 -16.41,88.26 -16.31,87.85 -16.08,87.49 -15.85,87.13 -15.52,86.87 -15.18,86.60 -14.78,86.46 -14.38,86.31 -13.96,86.30 -13.53,86.29 -13.13,86.42 -12.72,86.55 -12.38,86.80 -12.03,87.05 -11.79,87.39 -11.54,87.74 -11.42,88.15 -11.30,88.55 -11.31,88.98 -11.32,89.40 -11.47,89.80 -11.62,90.20 -11.89,90.53 -12.16,90.86 -12.52,91.09 -12.87,91.31 -13.29,91.41 -13.70,91.51 -14.12,91.48 -14.55,91.44 -14.94,91.27 -15.33,91.10 -15.19,91.18 -15.06,91.25 -15.32,91.08 -15.59,90.91 -15.80,90.68 -16.02,90.45 -16.18,90.17 -16.33,89.89 -16.41,89.59 -16.50,89.28 -16.51,88.97 -16.52,88.65 -16.45,88.34 -16.38,88.03 -16.24,87.75 -16.10,87.46 -15.90,87.22 -15.70,86.98 -15.44,86.79 -15.19,86.60 -14.89,86.48 -14.60,86.36 -14.29,86.32 -13.97,86.27 -13.66,86.30 -13.34,86.33 -13.04,86.43 -12.74,86.54 -12.78,84.62 -12.82,82.70 -10.72,83.89 -8.61,85.08 -6.65,86.33 -4.68,87.58 -2.27,88.34 0.14,89.11 4.27,89.20 8.41,89.29 14.78,88.32 21.15,87.36 24.60,84.26 28.06,81.17 29.68,76.98 31.30,72.80 29.48,68.98 27.66,65.16 26.35,63.39 25.04,61.63 23.39,60.02 21.75,58.42 18.99,56.76 16.23,55.10 11.92,53.78 7.62,52.46 4.75,52.14 1.89,51.82 -3.70,51.16 -9.30,50.50 -9.88,50.25 -10.46,50.00 -10.96,49.63 -11.46,49.25 -11.86,48.76 -12.25,48.27 -12.52,47.71 -12.79,47.14 -12.92,46.52 -13.04,45.91 -13.02,45.28 -12.99,44.65 -12.82,44.05 -12.64,43.44 -12.33,42.90 -12.01,42.36 -11.58,41.90 -11.14,41.45 -10.61,41.11 -10.08,40.78 -9.48,40.58 -8.89,40.38 -8.26,40.33 -7.64,40.28 -7.02,40.38 -6.40,40.48 -6.55,40.72 -6.71,40.95 -4.32,40.97 -1.93,40.98 0.24,40.64 2.42,40.30 4.72,39.89 7.02,39.47 9.44,38.65 11.85,37.83 13.97,37.03 16.08,36.23 17.93,34.95 19.77,33.68 21.45,32.25 23.14,30.82 24.50,29.05 25.86,27.28 26.96,25.20 28.06,23.13 27.52,19.65 26.98,16.16 25.90,13.46 24.81,10.76 22.78,8.80 20.74,6.83 18.79,4.92 16.84,3.01 14.56,1.84 12.29,0.68 9.26,0.90 6.24,1.11 3.84,1.99 1.43,2.86 1.07,2.99 0.70,3.12 0.32,3.16 -0.06,3.20 -0.44,3.15 -0.82,3.09 -1.18,2.95 -1.54,2.80 -1.85,2.58 -2.17,2.35 -2.42,2.06 -2.67,1.76 -2.84,1.42 -3.02,1.07 -3.10,0.70 -3.19,0.32 -3.18,-0.06 -3.17,-0.44 -3.07,-0.82 -2.97,-1.19 -2.78,-1.53 -2.60,-1.87 -2.34,-2.15 -2.07,-2.44 -1.75,-2.65 -1.43,-2.86 -1.43,-2.86 L -1.43,-2.86 Z"></path></g></svg>