<?xml version="1.0" standalone="no"?>
<!DOCTYPE svg PUBLIC "-//W3C//DTD SVG 1.1//EN" "http://www.w3.org/Graphics/SVG/1.1/DTD/svg11.dtd">
<svg version="1.1" xmlns="http://www.w3.org/2000/svg" viewBox="0 0 79.10112649726989 134.22906801993344" width="79.10112649726989" height="134.22906801993344" filter="invert(93%) hue-rotate(180deg)"><!-- svg-source:excalidraw --><metadata></metadata><defs><style class="style-fonts">
      </style></defs><g transform="translate(17.946369949212567 10.993296243651628) rotate(0 21.604193299422377 56.12123776631509)" stroke="none"><path fill="#1e1e1e" d="M -0.78,-5.10 Q -0.78,-5.10 1.06,-5.47 2.91,-5.83 6.26,-5.79 9.61,-5.76 12.81,-5.54 16.02,-5.32 18.45,-5.15 20.88,-4.99 24.64,-3.91 28.41,-2.84 30.18,-1.50 31.95,-0.17 33.49,1.88 35.03,3.95 36.18,5.93 37.33,7.92 38.44,11.14 39.56,14.36 40.22,16.78 40.88,19.21 40.96,23.53 41.04,27.85 40.70,31.75 40.36,35.65 39.43,39.34 38.50,43.03 36.61,46.61 34.71,50.18 32.34,53.22 29.96,56.25 27.66,58.82 25.36,61.38 23.05,63.33 20.75,65.27 17.89,66.98 15.04,68.69 12.38,69.24 9.73,69.78 7.30,69.81 4.86,69.83 1.62,68.91 -1.61,67.99 -4.48,67.24 -7.36,66.49 -9.91,64.52 -12.46,62.54 -13.18,59.94 -13.90,57.33 -13.48,54.25 -13.06,51.16 -10.52,48.82 -7.97,46.49 -5.86,46.10 -3.76,45.72 -0.36,45.32 3.04,44.93 7.02,44.83 11.00,44.73 14.79,44.52 18.59,44.30 22.13,44.08 25.68,43.85 28.89,43.60 32.10,43.36 34.86,42.98 37.62,42.61 41.29,44.10 44.96,45.59 47.56,48.13 50.16,50.67 51.41,52.66 52.67,54.64 53.66,56.55 54.66,58.46 55.29,60.67 55.92,62.88 56.46,67.02 56.99,71.16 56.87,73.89 56.75,76.62 56.01,79.77 55.27,82.91 54.32,85.68 53.37,88.44 51.58,91.71 49.78,94.99 48.35,97.47 46.91,99.95 45.07,102.24 43.23,104.52 41.64,106.29 40.06,108.06 38.29,109.77 36.52,111.49 34.10,113.07 31.69,114.65 29.23,115.79 26.77,116.93 24.70,117.55 22.64,118.17 19.92,118.61 17.20,119.04 14.65,119.01 12.09,118.98 9.65,119.08 7.21,119.18 4.35,119.22 1.50,119.26 -0.98,119.28 -3.47,119.29 -4.52,119.12 -5.57,118.95 -6.50,118.45 -7.44,117.96 -8.17,117.19 -8.90,116.41 -9.35,115.45 -9.79,114.49 -9.91,113.43 -10.02,112.38 -9.79,111.34 -9.56,110.31 -9.02,109.40 -8.47,108.49 -7.66,107.80 -6.85,107.11 -5.87,106.72 -4.88,106.33 -3.82,106.27 -2.76,106.21 -1.74,106.50 -0.72,106.78 0.15,107.38 1.03,107.97 1.67,108.82 2.31,109.66 2.65,110.67 2.99,111.67 2.99,112.74 2.99,113.80 2.65,114.80 2.31,115.81 1.67,116.65 1.03,117.50 0.15,118.09 -0.72,118.69 -1.74,118.97 -2.76,119.25 -3.82,119.20 -4.88,119.14 -5.87,118.75 -6.85,118.35 -7.66,117.67 -8.47,116.98 -9.02,116.07 -9.57,115.16 -9.79,114.12 -10.02,113.09 -9.91,112.03 -9.79,110.98 -9.35,110.01 -8.90,109.05 -8.17,108.28 -7.44,107.51 -6.50,107.01 -5.56,106.52 -4.52,106.35 -3.47,106.18 -3.47,106.18 -3.47,106.18 0.36,106.21 4.21,106.25 6.56,106.31 8.92,106.36 11.87,106.54 14.82,106.72 17.35,106.91 19.88,107.10 22.85,106.14 25.82,105.19 28.91,102.90 31.99,100.61 34.76,97.61 37.52,94.61 38.79,92.32 40.05,90.03 41.25,87.43 42.44,84.84 43.63,80.49 44.82,76.14 44.80,72.37 44.78,68.60 44.45,66.11 44.13,63.62 42.67,60.74 41.22,57.87 39.58,55.38 37.94,52.89 35.45,52.87 32.96,52.84 29.80,53.17 26.63,53.50 23.24,53.96 19.84,54.42 16.04,55.15 12.24,55.88 8.43,56.65 4.62,57.42 0.49,56.56 -3.62,55.69 -1.21,56.57 1.19,57.45 3.72,58.07 6.24,58.69 8.39,58.96 10.54,59.23 12.85,58.66 15.17,58.09 17.00,56.80 18.83,55.52 20.90,53.19 22.97,50.85 24.83,48.40 26.69,45.95 28.04,43.34 29.39,40.74 30.04,37.93 30.70,35.13 30.72,31.82 30.75,28.50 29.87,23.34 28.99,18.18 28.10,15.87 27.21,13.57 25.81,10.91 24.40,8.25 22.17,6.81 19.94,5.37 17.73,5.12 15.52,4.87 12.53,4.78 9.53,4.70 7.02,4.69 4.51,4.68 2.64,4.89 0.78,5.10 0.16,5.12 -0.45,5.14 -1.06,5.01 -1.67,4.88 -2.23,4.61 -2.80,4.34 -3.27,3.94 -3.75,3.54 -4.12,3.04 -4.49,2.54 -4.73,1.97 -4.97,1.39 -5.07,0.78 -5.16,0.16 -5.11,-0.45 -5.05,-1.07 -4.85,-1.66 -4.65,-2.25 -4.31,-2.78 -3.97,-3.30 -3.52,-3.73 -3.07,-4.15 -2.52,-4.46 -1.98,-4.77 -1.38,-4.94 -0.78,-5.11 -0.78,-5.11 L -0.78,-5.10 Z"></path></g></svg>